<?xml version="1.0" encoding="iso-8859-1"?>
<!-- Generator: Adobe Illustrator 19.0.0, SVG Export Plug-In . SVG Version: 6.00 Build 0)  -->
<svg version="1.1" id="Capa_1" xmlns="http://www.w3.org/2000/svg" xmlns:xlink="http://www.w3.org/1999/xlink" x="0px" y="0px"
	 viewBox="0 0 512 512" style="enable-background:new 0 0 512 512;" xml:space="preserve">
<g>
	<path style="fill:#FAC97A;" d="M256,0c-22.804,0-41.29,18.486-41.29,41.29v41.29h82.581V41.29C297.29,18.486,278.804,0,256,0z"/>
	<path style="fill:#FAB667;" d="M239.484,24.774V3.486C224.913,9.863,214.71,24.368,214.71,41.29v41.29h82.581V49.548h-33.032
		C250.576,49.548,239.484,38.457,239.484,24.774z"/>
	<path style="fill:#9C969E;" d="M338.581,66.065H173.419c-9.121,0-16.516,7.394-16.516,16.516v24.774h198.194V82.581
		C355.097,73.459,347.702,66.065,338.581,66.065z"/>
	<rect x="156.903" y="82.581" style="fill:#867E88;" width="198.194" height="24.774"/>
	<path style="fill:#E6646E;" d="M487.226,371.613H24.774c-9.122,0-16.516-7.395-16.516-16.516V256
		c0-9.122,7.395-16.516,16.516-16.516h462.452c9.122,0,16.516,7.395,16.516,16.516v99.097
		C503.742,364.218,496.347,371.613,487.226,371.613z"/>
	<rect x="33.032" y="239.484" style="fill:#DC4655;" width="445.935" height="132.129"/>
	<path style="fill:#C4DEFF;" d="M412.903,512H99.097c-27.365,0-49.548-22.184-49.548-49.548V148.645
		c0-27.365,22.184-49.548,49.548-49.548h313.806c27.365,0,49.548,22.184,49.548,49.548v313.806
		C462.452,489.816,440.268,512,412.903,512z"/>
	<circle style="fill:#A5CDFF;" cx="165.161" cy="264.258" r="66.065"/>
	<circle style="fill:#FFFFFF;" cx="165.161" cy="264.258" r="49.548"/>
	<path style="fill:#E6646E;" d="M165.161,322.065c-4.565,0-8.258-3.694-8.258-8.258V214.71c0-4.565,3.694-8.258,8.258-8.258
		s8.258,3.694,8.258,8.258v99.097C173.419,318.371,169.726,322.065,165.161,322.065z"/>
	<path style="fill:#FFFFFF;" d="M363.355,437.677h-214.71c-9.122,0-16.516-7.395-16.516-16.516v-16.516
		c0-9.122,7.395-16.516,16.516-16.516h214.71c9.122,0,16.516,7.395,16.516,16.516v16.516
		C379.871,430.283,372.476,437.677,363.355,437.677z"/>
	<circle style="fill:#A5CDFF;" cx="346.839" cy="264.258" r="66.065"/>
	<circle style="fill:#FFFFFF;" cx="346.839" cy="264.258" r="49.548"/>
	<path style="fill:#E6646E;" d="M346.839,322.065c-4.565,0-8.258-3.694-8.258-8.258V214.71c0-4.565,3.694-8.258,8.258-8.258
		s8.258,3.694,8.258,8.258v99.097C355.097,318.371,351.403,322.065,346.839,322.065z"/>
	<rect x="165.161" y="388.129" style="fill:#DCEBFF;" width="16.516" height="49.548"/>
	<rect x="206.452" y="388.129" style="fill:#DCEBFF;" width="16.516" height="49.548"/>
	<rect x="247.742" y="388.129" style="fill:#DCEBFF;" width="16.516" height="49.548"/>
	<rect x="289.032" y="388.129" style="fill:#DCEBFF;" width="16.516" height="49.548"/>
	<rect x="330.323" y="388.129" style="fill:#DCEBFF;" width="16.516" height="49.548"/>
	<path style="fill:#A5CDFF;" d="M148.645,478.968c-36.486,0-66.065-29.578-66.065-66.065V101.977
		c-19.232,6.809-33.032,25.104-33.032,46.668v313.806c0,27.365,22.184,49.548,49.548,49.548h313.806
		c21.565,0,39.859-13.8,46.668-33.032H148.645z"/>
</g>
<g>
</g>
<g>
</g>
<g>
</g>
<g>
</g>
<g>
</g>
<g>
</g>
<g>
</g>
<g>
</g>
<g>
</g>
<g>
</g>
<g>
</g>
<g>
</g>
<g>
</g>
<g>
</g>
<g>
</g>
</svg>
